<svg viewBox="0 0 12 14" xmlns="http://www.w3.org/2000/svg">
    <path d="M1.71429 0.875C1.71429 0.391016 1.33125 0 0.857143 0C0.383036 0 0 0.391016 0 0.875V1.75V10.0625V13.125C0 13.609 0.383036 14 0.857143 14C1.33125 14 1.71429 13.609 1.71429 13.125V9.625L3.43661 9.18477C4.5375 8.90312 5.70268 9.03437 6.71786 9.55117C7.90179 10.1555 9.27589 10.2293 10.5134 9.75352L11.4429 9.39805C11.7777 9.26953 12 8.94414 12 8.57773V1.80742C12 1.17852 11.3518 0.768359 10.8 1.05L10.5429 1.18125C9.30268 1.81563 7.84286 1.81563 6.60268 1.18125C5.6625 0.7 4.58304 0.579688 3.5625 0.839453L1.71429 1.3125V0.875Z"/>
</svg>
