<svg viewBox="0 0 14 12" xmlns="http://www.w3.org/2000/svg">
    <path d="M6.99985 0.75C6.82266 0.75 6.64766 0.782812 6.48141 0.846094L0.345473 3.22031C0.137661 3.30234 -0.000151575 3.51328 -0.000151575 3.75C-0.000151575 3.98672 0.137661 4.19766 0.345473 4.27969L1.61204 4.76953C1.25329 5.37422 1.04985 6.08906 1.04985 6.84141V7.5C1.04985 8.16563 0.813598 8.85234 0.562036 9.39375C0.419848 9.69844 0.257973 9.99844 0.0698484 10.275C-0.000151575 10.3758 -0.0198391 10.507 0.0195359 10.6266C0.0589109 10.7461 0.150786 10.8352 0.264536 10.8656L1.66454 11.2406C1.75641 11.2664 1.85485 11.2477 1.93579 11.1938C2.01672 11.1398 2.0736 11.0508 2.0911 10.95C2.27922 9.94688 2.18516 9.04688 2.04516 8.40234C1.97516 8.06953 1.8811 7.72969 1.74985 7.41797V6.84141C1.74985 6.13359 1.97297 5.46562 2.36016 4.93125C2.64235 4.56797 3.00766 4.275 3.43641 4.09453L6.87079 2.64844C7.05016 2.57344 7.2536 2.66719 7.3236 2.85938C7.3936 3.05156 7.3061 3.26953 7.12672 3.34453L3.69235 4.79062C3.4211 4.90547 3.18266 5.08125 2.98797 5.29688L6.47922 6.64688C6.64547 6.71016 6.82047 6.74297 6.99766 6.74297C7.17485 6.74297 7.34985 6.71016 7.5161 6.64688L13.6542 4.27969C13.862 4.2 13.9998 3.98672 13.9998 3.75C13.9998 3.51328 13.862 3.30234 13.6542 3.22031L7.51829 0.846094C7.35204 0.782812 7.17704 0.75 6.99985 0.75ZM2.79985 9.5625C2.79985 10.3898 4.6811 11.25 6.99985 11.25C9.3186 11.25 11.1998 10.3898 11.1998 9.5625L10.8652 6.15469L7.75454 7.35938C7.51172 7.45312 7.25579 7.5 6.99985 7.5C6.74391 7.5 6.48579 7.45312 6.24516 7.35938L3.13454 6.15469L2.79985 9.5625Z"/>
</svg>
