<svg viewBox="0 0 12 16" xmlns="http://www.w3.org/2000/svg">
    <path d="M1.5 0C0.671875 0 0 0.658954 0 1.47115V14.2212C0 15.0334 0.671875 15.6923 1.5 15.6923H4.5V13.2404C4.5 12.4282 5.17188 11.7692 6 11.7692C6.82812 11.7692 7.5 12.4282 7.5 13.2404V15.6923H10.5C11.3281 15.6923 12 15.0334 12 14.2212V1.47115C12 0.658954 11.3281 0 10.5 0H1.5ZM2 7.35577C2 7.08606 2.225 6.86538 2.5 6.86538H3.5C3.775 6.86538 4 7.08606 4 7.35577V8.33654C4 8.60625 3.775 8.82692 3.5 8.82692H2.5C2.225 8.82692 2 8.60625 2 8.33654V7.35577ZM5.5 6.86538H6.5C6.775 6.86538 7 7.08606 7 7.35577V8.33654C7 8.60625 6.775 8.82692 6.5 8.82692H5.5C5.225 8.82692 5 8.60625 5 8.33654V7.35577C5 7.08606 5.225 6.86538 5.5 6.86538ZM8 7.35577C8 7.08606 8.225 6.86538 8.5 6.86538H9.5C9.775 6.86538 10 7.08606 10 7.35577V8.33654C10 8.60625 9.775 8.82692 9.5 8.82692H8.5C8.225 8.82692 8 8.60625 8 8.33654V7.35577ZM2.5 2.94231H3.5C3.775 2.94231 4 3.16298 4 3.43269V4.41346C4 4.68317 3.775 4.90385 3.5 4.90385H2.5C2.225 4.90385 2 4.68317 2 4.41346V3.43269C2 3.16298 2.225 2.94231 2.5 2.94231ZM5 3.43269C5 3.16298 5.225 2.94231 5.5 2.94231H6.5C6.775 2.94231 7 3.16298 7 3.43269V4.41346C7 4.68317 6.775 4.90385 6.5 4.90385H5.5C5.225 4.90385 5 4.68317 5 4.41346V3.43269ZM8.5 2.94231H9.5C9.775 2.94231 10 3.16298 10 3.43269V4.41346C10 4.68317 9.775 4.90385 9.5 4.90385H8.5C8.225 4.90385 8 4.68317 8 4.41346V3.43269C8 3.16298 8.225 2.94231 8.5 2.94231Z"/>
</svg>
