<svg width="20" height="18" viewBox="0 0 20 18" fill="none" xmlns="http://www.w3.org/2000/svg">
    <path d="M0 15a1.2 1.2 0 0 1 1.203-1.2h2.055A3 3 0 0 1 6.013 12a3 3 0 0 1 2.755 1.8h9.27a1.2 1.2 0 1 1 0 2.4h-9.27A3 3 0 0 1 6.013 18a3 3 0 0 1-2.755-1.8H1.203A1.2 1.2 0 0 1 0 15zm7.216 0a1.198 1.198 0 0 0-1.203-1.2A1.204 1.204 0 0 0 4.81 15a1.199 1.199 0 0 0 1.203 1.2A1.204 1.204 0 0 0 7.216 15zm7.215-6a1.199 1.199 0 0 0-1.203-1.2A1.204 1.204 0 0 0 12.026 9a1.199 1.199 0 0 0 1.202 1.2A1.204 1.204 0 0 0 14.431 9zm-1.203-3a3 3 0 0 1 2.755 1.8h2.056a1.2 1.2 0 1 1 0 2.4h-2.056a3 3 0 0 1-2.755 1.8 3 3 0 0 1-2.754-1.8H1.203a1.2 1.2 0 1 1 0-2.4h9.27A3 3 0 0 1 13.229 6zM7.216 1.8A1.204 1.204 0 0 0 6.013 3a1.199 1.199 0 0 0 1.203 1.2A1.204 1.204 0 0 0 8.418 3a1.199 1.199 0 0 0-1.202-1.2zm2.754 0h8.069a1.2 1.2 0 1 1 0 2.4H9.97A3 3 0 0 1 7.216 6 3 3 0 0 1 4.46 4.2H1.203a1.2 1.2 0 1 1 0-2.4H4.46A3 3 0 0 1 7.216 0 3 3 0 0 1 9.97 1.8z" fill="#004A9F"/>
</svg>
