<svg viewBox="0 0 12 10" xmlns="http://www.w3.org/2000/svg">
    <path d="M0.580645 0C0.258871 0 0 0.257212 0 0.576923V1.73077C0 2.05048 0.258871 2.30769 0.580645 2.30769H1.74194C2.06371 2.30769 2.32258 2.05048 2.32258 1.73077V0.576923C2.32258 0.257212 2.06371 0 1.74194 0H0.580645ZM4.25806 0.384615C3.82984 0.384615 3.48387 0.728365 3.48387 1.15385C3.48387 1.57933 3.82984 1.92308 4.25806 1.92308H11.2258C11.654 1.92308 12 1.57933 12 1.15385C12 0.728365 11.654 0.384615 11.2258 0.384615H4.25806ZM4.25806 4.23077C3.82984 4.23077 3.48387 4.57452 3.48387 5C3.48387 5.42548 3.82984 5.76923 4.25806 5.76923H11.2258C11.654 5.76923 12 5.42548 12 5C12 4.57452 11.654 4.23077 11.2258 4.23077H4.25806ZM4.25806 8.07692C3.82984 8.07692 3.48387 8.42067 3.48387 8.84615C3.48387 9.27163 3.82984 9.61539 4.25806 9.61539H11.2258C11.654 9.61539 12 9.27163 12 8.84615C12 8.42067 11.654 8.07692 11.2258 8.07692H4.25806ZM0 4.42308V5.57692C0 5.89663 0.258871 6.15385 0.580645 6.15385H1.74194C2.06371 6.15385 2.32258 5.89663 2.32258 5.57692V4.42308C2.32258 4.10337 2.06371 3.84615 1.74194 3.84615H0.580645C0.258871 3.84615 0 4.10337 0 4.42308ZM0.580645 7.69231C0.258871 7.69231 0 7.94952 0 8.26923V9.42308C0 9.74279 0.258871 10 0.580645 10H1.74194C2.06371 10 2.32258 9.74279 2.32258 9.42308V8.26923C2.32258 7.94952 2.06371 7.69231 1.74194 7.69231H0.580645Z"/>
</svg>
