<svg viewBox="0 0 12 14" xmlns="http://www.w3.org/2000/svg">
    <path d="M6 6.7742C5.09069 6.7742 4.21862 6.41734 3.57563 5.78214C2.93265 5.14693 2.57143 4.28541 2.57143 3.3871C2.57143 2.48878 2.93265 1.62726 3.57563 0.992058C4.21862 0.356854 5.09069 0 6 0C6.90931 0 7.78138 0.356854 8.42437 0.992058C9.06735 1.62726 9.42857 2.48878 9.42857 3.3871C9.42857 4.28541 9.06735 5.14693 8.42437 5.78214C7.78138 6.41734 6.90931 6.7742 6 6.7742ZM7.22411 8.04436C9.8625 8.04436 12 10.156 12 12.7625C12 13.1965 11.6437 13.5484 11.2045 13.5484H0.795536C0.35625 13.5484 0 13.1965 0 12.7625C0 10.156 2.1375 8.04436 4.77589 8.04436H7.22411Z"/>
</svg>
