<svg viewBox="0 0 12 13" xmlns="http://www.w3.org/2000/svg">
    <path d="M3.42857 0C3.90268 0 4.28571 0.363086 4.28571 0.8125V1.625H7.71429V0.8125C7.71429 0.363086 8.09732 0 8.57143 0C9.04554 0 9.42857 0.363086 9.42857 0.8125V1.625H10.7143C11.4241 1.625 12 2.1709 12 2.84375V4.0625H0V2.84375C0 2.1709 0.575893 1.625 1.28571 1.625H2.57143V0.8125C2.57143 0.363086 2.95446 0 3.42857 0ZM0 4.875H12V11.7812C12 12.4541 11.4241 13 10.7143 13H1.28571C0.575893 13 0 12.4541 0 11.7812V4.875ZM1.71429 6.90625V7.71875C1.71429 7.94219 1.90714 8.125 2.14286 8.125H3C3.23571 8.125 3.42857 7.94219 3.42857 7.71875V6.90625C3.42857 6.68281 3.23571 6.5 3 6.5H2.14286C1.90714 6.5 1.71429 6.68281 1.71429 6.90625ZM5.14286 6.90625V7.71875C5.14286 7.94219 5.33571 8.125 5.57143 8.125H6.42857C6.66429 8.125 6.85714 7.94219 6.85714 7.71875V6.90625C6.85714 6.68281 6.66429 6.5 6.42857 6.5H5.57143C5.33571 6.5 5.14286 6.68281 5.14286 6.90625ZM9 6.5C8.76429 6.5 8.57143 6.68281 8.57143 6.90625V7.71875C8.57143 7.94219 8.76429 8.125 9 8.125H9.85714C10.0929 8.125 10.2857 7.94219 10.2857 7.71875V6.90625C10.2857 6.68281 10.0929 6.5 9.85714 6.5H9ZM1.71429 10.1562V10.9688C1.71429 11.1922 1.90714 11.375 2.14286 11.375H3C3.23571 11.375 3.42857 11.1922 3.42857 10.9688V10.1562C3.42857 9.93281 3.23571 9.75 3 9.75H2.14286C1.90714 9.75 1.71429 9.93281 1.71429 10.1562ZM5.57143 9.75C5.33571 9.75 5.14286 9.93281 5.14286 10.1562V10.9688C5.14286 11.1922 5.33571 11.375 5.57143 11.375H6.42857C6.66429 11.375 6.85714 11.1922 6.85714 10.9688V10.1562C6.85714 9.93281 6.66429 9.75 6.42857 9.75H5.57143ZM8.57143 10.1562V10.9688C8.57143 11.1922 8.76429 11.375 9 11.375H9.85714C10.0929 11.375 10.2857 11.1922 10.2857 10.9688V10.1562C10.2857 9.93281 10.0929 9.75 9.85714 9.75H9C8.76429 9.75 8.57143 9.93281 8.57143 10.1562Z"/>
</svg>
