<svg viewBox="0 0 13 12" xmlns="http://www.w3.org/2000/svg">
    <path d="M5.96956 0.121869C6.30585 -0.0398499 6.69404 -0.0398499 7.03033 0.121869L11.964 2.48906C12.1558 2.58046 12.2777 2.77968 12.2777 2.99999C12.2777 3.22031 12.1558 3.41953 11.964 3.51093L7.03033 5.87812C6.69404 6.03984 6.30585 6.03984 5.96956 5.87812L1.03588 3.51093C0.844043 3.41718 0.722168 3.21796 0.722168 2.99999C0.722168 2.78203 0.844043 2.58046 1.03588 2.48906L5.96956 0.121869ZM10.7633 4.91249L11.964 5.48906C12.1558 5.58046 12.2777 5.77968 12.2777 5.99999C12.2777 6.22031 12.1558 6.41953 11.964 6.51093L7.03033 8.87812C6.69404 9.03984 6.30585 9.03984 5.96956 8.87812L1.03588 6.51093C0.844043 6.41718 0.722168 6.21796 0.722168 5.99999C0.722168 5.78203 0.844043 5.58046 1.03588 5.48906L2.23658 4.91249L5.66713 6.55781C6.19526 6.81093 6.80463 6.81093 7.33276 6.55781L10.7633 4.91249ZM7.33276 9.55781L10.7633 7.91249L11.964 8.48906C12.1558 8.58046 12.2777 8.77968 12.2777 8.99999C12.2777 9.22031 12.1558 9.41953 11.964 9.51093L7.03033 11.8781C6.69404 12.0398 6.30585 12.0398 5.96956 11.8781L1.03588 9.51093C0.844043 9.41718 0.722168 9.21796 0.722168 8.99999C0.722168 8.78203 0.844043 8.58046 1.03588 8.48906L2.23658 7.91249L5.66713 9.55781C6.19526 9.81093 6.80463 9.81093 7.33276 9.55781Z"/>
</svg>
