<svg viewBox="0 0 12 12" xmlns="http://www.w3.org/2000/svg">
    <path d="M8.25 6C8.25 5.47969 8.22188 4.97813 8.17266 4.5H3.82734C3.77578 4.97813 3.75 5.47969 3.75 6C3.75 6.52031 3.77813 7.02187 3.82734 7.5H8.17266C8.22422 7.02187 8.25 6.52031 8.25 6ZM8.925 7.5H11.8102C11.9344 7.01953 12 6.51797 12 6C12 5.48203 11.9344 4.98047 11.8102 4.5H8.925C8.97422 4.98281 9 5.48438 9 6C9 6.51562 8.97422 7.01719 8.925 7.5ZM11.5641 8.25H8.82891C8.59453 9.74766 8.13047 11.0016 7.53281 11.8031C9.36797 11.318 10.8609 9.98672 11.5617 8.25H11.5641ZM8.06953 8.25H3.93047C4.07344 9.10313 4.29375 9.85781 4.56328 10.4695C4.80937 11.0227 5.08359 11.4234 5.34844 11.6766C5.61094 11.925 5.82891 12 6 12C6.17109 12 6.38906 11.925 6.65156 11.6766C6.91641 11.4234 7.19062 11.0227 7.43672 10.4695C7.70859 9.86016 7.92891 9.10547 8.06953 8.25ZM3.17109 8.25H0.435938C1.13906 9.98672 2.62969 11.318 4.46719 11.8031C3.86953 11.0016 3.40547 9.74766 3.17109 8.25ZM0.189844 7.5H3.075C3.02578 7.01719 3 6.51562 3 6C3 5.48438 3.02578 4.98281 3.075 4.5H0.189844C0.065625 4.98047 0 5.48203 0 6C0 6.51797 0.065625 7.01953 0.189844 7.5ZM4.56328 1.53281C4.29141 2.14219 4.07344 2.89688 3.93047 3.75H8.06953C7.92656 2.89688 7.70625 2.14219 7.43672 1.53281C7.19062 0.979688 6.91641 0.578906 6.65156 0.325781C6.38906 0.0749998 6.17109 0 6 0C5.82891 0 5.61094 0.0749998 5.34844 0.323437C5.08359 0.576562 4.80937 0.977344 4.56328 1.53047V1.53281ZM3.17109 3.75C3.40547 2.25234 3.86953 0.998437 4.46719 0.196875C2.62969 0.682031 1.13906 2.01328 0.435938 3.75H3.17109ZM11.5641 3.75C10.8609 2.01328 9.37031 0.682031 7.53516 0.196875C8.13281 0.998437 8.59453 2.25234 8.83125 3.75H11.5641Z"/>
</svg>
