<svg xmlns="http://www.w3.org/2000/svg" xmlns:xlink="http://www.w3.org/1999/xlink"><defs><style>
    .sprite-symbol-usage {display: none;}
    .sprite-symbol-usage:target {display: inline;}
  </style><symbol viewBox="0 0 24 14" id="accordion-arrow"><path d="M10.7897 13.3125C11.4591 13.9871 12.5462 13.9871 13.2157 13.3125L23.4979 2.95088C24.1674 2.27629 24.1674 1.18077 23.4979 0.506182C22.8285 -0.168402 21.7414 -0.168402 21.072 0.506182L12 9.64815L2.92804 0.511579C2.25862 -0.163006 1.17148 -0.163006 0.502064 0.511579C-0.167355 1.18616 -0.167355 2.28169 0.502064 2.95627L10.7843 13.3179L10.7897 13.3125Z" /></symbol><symbol viewBox="0 0 12 14" id="area-of-study"><path d="M1.71429 0.875C1.71429 0.391016 1.33125 0 0.857143 0C0.383036 0 0 0.391016 0 0.875V1.75V10.0625V13.125C0 13.609 0.383036 14 0.857143 14C1.33125 14 1.71429 13.609 1.71429 13.125V9.625L3.43661 9.18477C4.5375 8.90312 5.70268 9.03437 6.71786 9.55117C7.90179 10.1555 9.27589 10.2293 10.5134 9.75352L11.4429 9.39805C11.7777 9.26953 12 8.94414 12 8.57773V1.80742C12 1.17852 11.3518 0.768359 10.8 1.05L10.5429 1.18125C9.30268 1.81563 7.84286 1.81563 6.60268 1.18125C5.6625 0.7 4.58304 0.579688 3.5625 0.839453L1.71429 1.3125V0.875Z" /></symbol><symbol viewBox="0 0 12 16" id="attributes"><path d="M6 0C4.69375 0 3.58125 0.834375 3.17188 2H2C0.896875 2 0 2.89687 0 4V14C0 15.1031 0.896875 16 2 16H10C11.1031 16 12 15.1031 12 14V4C12 2.89687 11.1031 2 10 2H8.82812C8.41875 0.834375 7.30625 0 6 0ZM6 2C6.26522 2 6.51957 2.10536 6.70711 2.29289C6.89464 2.48043 7 2.73478 7 3C7 3.26522 6.89464 3.51957 6.70711 3.70711C6.51957 3.89464 6.26522 4 6 4C5.73478 4 5.48043 3.89464 5.29289 3.70711C5.10536 3.51957 5 3.26522 5 3C5 2.73478 5.10536 2.48043 5.29289 2.29289C5.48043 2.10536 5.73478 2 6 2ZM2.25 8.5C2.25 8.30109 2.32902 8.11032 2.46967 7.96967C2.61032 7.82902 2.80109 7.75 3 7.75C3.19891 7.75 3.38968 7.82902 3.53033 7.96967C3.67098 8.11032 3.75 8.30109 3.75 8.5C3.75 8.69891 3.67098 8.88968 3.53033 9.03033C3.38968 9.17098 3.19891 9.25 3 9.25C2.80109 9.25 2.61032 9.17098 2.46967 9.03033C2.32902 8.88968 2.25 8.69891 2.25 8.5ZM5.5 8H9.5C9.775 8 10 8.225 10 8.5C10 8.775 9.775 9 9.5 9H5.5C5.225 9 5 8.775 5 8.5C5 8.225 5.225 8 5.5 8ZM2.25 11.5C2.25 11.3011 2.32902 11.1103 2.46967 10.9697C2.61032 10.829 2.80109 10.75 3 10.75C3.19891 10.75 3.38968 10.829 3.53033 10.9697C3.67098 11.1103 3.75 11.3011 3.75 11.5C3.75 11.6989 3.67098 11.8897 3.53033 12.0303C3.38968 12.171 3.19891 12.25 3 12.25C2.80109 12.25 2.61032 12.171 2.46967 12.0303C2.32902 11.8897 2.25 11.6989 2.25 11.5ZM5 11.5C5 11.225 5.225 11 5.5 11H9.5C9.775 11 10 11.225 10 11.5C10 11.775 9.775 12 9.5 12H5.5C5.225 12 5 11.775 5 11.5Z" /></symbol><symbol viewBox="0 0 11 10" id="check"><path d="M10.7698 0.269447C11.0767 0.62871 11.0767 1.21215 10.7698 1.57141L4.48482 8.92911C4.17794 9.28838 3.67956 9.28838 3.37267 8.92911L0.230164 5.25026C-0.0767213 4.891 -0.0767213 4.30756 0.230164 3.9483C0.537049 3.58903 1.03543 3.58903 1.34232 3.9483L3.92997 6.97473L9.66014 0.269447C9.96702 -0.0898157 10.4654 -0.0898157 10.7723 0.269447H10.7698Z" /></symbol><symbol viewBox="0 0 12 12" id="close"><path d="M11.6449 2.04935C12.1134 1.58082 12.1134 0.819928 11.6449 0.351398C11.1763 -0.117133 10.4154 -0.117133 9.9469 0.351398L6 4.30205L2.04935 0.355146C1.58082 -0.113384 0.819928 -0.113384 0.351398 0.355146C-0.117133 0.823676 -0.117133 1.58457 0.351398 2.0531L4.30205 6L0.355146 9.95065C-0.113384 10.4192 -0.113384 11.1801 0.355146 11.6486C0.823676 12.1171 1.58457 12.1171 2.0531 11.6486L6 7.69795L9.95065 11.6449C10.4192 12.1134 11.1801 12.1134 11.6486 11.6449C12.1171 11.1763 12.1171 10.4154 11.6486 9.9469L7.69795 6L11.6449 2.04935Z" /></symbol><symbol viewBox="0 0 14 12" id="degree"><path d="M6.99985 0.75C6.82266 0.75 6.64766 0.782812 6.48141 0.846094L0.345473 3.22031C0.137661 3.30234 -0.000151575 3.51328 -0.000151575 3.75C-0.000151575 3.98672 0.137661 4.19766 0.345473 4.27969L1.61204 4.76953C1.25329 5.37422 1.04985 6.08906 1.04985 6.84141V7.5C1.04985 8.16563 0.813598 8.85234 0.562036 9.39375C0.419848 9.69844 0.257973 9.99844 0.0698484 10.275C-0.000151575 10.3758 -0.0198391 10.507 0.0195359 10.6266C0.0589109 10.7461 0.150786 10.8352 0.264536 10.8656L1.66454 11.2406C1.75641 11.2664 1.85485 11.2477 1.93579 11.1938C2.01672 11.1398 2.0736 11.0508 2.0911 10.95C2.27922 9.94688 2.18516 9.04688 2.04516 8.40234C1.97516 8.06953 1.8811 7.72969 1.74985 7.41797V6.84141C1.74985 6.13359 1.97297 5.46562 2.36016 4.93125C2.64235 4.56797 3.00766 4.275 3.43641 4.09453L6.87079 2.64844C7.05016 2.57344 7.2536 2.66719 7.3236 2.85938C7.3936 3.05156 7.3061 3.26953 7.12672 3.34453L3.69235 4.79062C3.4211 4.90547 3.18266 5.08125 2.98797 5.29688L6.47922 6.64688C6.64547 6.71016 6.82047 6.74297 6.99766 6.74297C7.17485 6.74297 7.34985 6.71016 7.5161 6.64688L13.6542 4.27969C13.862 4.2 13.9998 3.98672 13.9998 3.75C13.9998 3.51328 13.862 3.30234 13.6542 3.22031L7.51829 0.846094C7.35204 0.782812 7.17704 0.75 6.99985 0.75ZM2.79985 9.5625C2.79985 10.3898 4.6811 11.25 6.99985 11.25C9.3186 11.25 11.1998 10.3898 11.1998 9.5625L10.8652 6.15469L7.75454 7.35938C7.51172 7.45312 7.25579 7.5 6.99985 7.5C6.74391 7.5 6.48579 7.45312 6.24516 7.35938L3.13454 6.15469L2.79985 9.5625Z" /></symbol><symbol viewBox="0 0 12 16" id="faculty"><path d="M1.5 0C0.671875 0 0 0.658954 0 1.47115V14.2212C0 15.0334 0.671875 15.6923 1.5 15.6923H4.5V13.2404C4.5 12.4282 5.17188 11.7692 6 11.7692C6.82812 11.7692 7.5 12.4282 7.5 13.2404V15.6923H10.5C11.3281 15.6923 12 15.0334 12 14.2212V1.47115C12 0.658954 11.3281 0 10.5 0H1.5ZM2 7.35577C2 7.08606 2.225 6.86538 2.5 6.86538H3.5C3.775 6.86538 4 7.08606 4 7.35577V8.33654C4 8.60625 3.775 8.82692 3.5 8.82692H2.5C2.225 8.82692 2 8.60625 2 8.33654V7.35577ZM5.5 6.86538H6.5C6.775 6.86538 7 7.08606 7 7.35577V8.33654C7 8.60625 6.775 8.82692 6.5 8.82692H5.5C5.225 8.82692 5 8.60625 5 8.33654V7.35577C5 7.08606 5.225 6.86538 5.5 6.86538ZM8 7.35577C8 7.08606 8.225 6.86538 8.5 6.86538H9.5C9.775 6.86538 10 7.08606 10 7.35577V8.33654C10 8.60625 9.775 8.82692 9.5 8.82692H8.5C8.225 8.82692 8 8.60625 8 8.33654V7.35577ZM2.5 2.94231H3.5C3.775 2.94231 4 3.16298 4 3.43269V4.41346C4 4.68317 3.775 4.90385 3.5 4.90385H2.5C2.225 4.90385 2 4.68317 2 4.41346V3.43269C2 3.16298 2.225 2.94231 2.5 2.94231ZM5 3.43269C5 3.16298 5.225 2.94231 5.5 2.94231H6.5C6.775 2.94231 7 3.16298 7 3.43269V4.41346C7 4.68317 6.775 4.90385 6.5 4.90385H5.5C5.225 4.90385 5 4.68317 5 4.41346V3.43269ZM8.5 2.94231H9.5C9.775 2.94231 10 3.16298 10 3.43269V4.41346C10 4.68317 9.775 4.90385 9.5 4.90385H8.5C8.225 4.90385 8 4.68317 8 4.41346V3.43269C8 3.16298 8.225 2.94231 8.5 2.94231Z" /></symbol><symbol class="bi bi-grid-3x3-gap-fill" viewBox="0 0 16 16" id="grid"><path d="M1 2a1 1 0 0 1 1-1h2a1 1 0 0 1 1 1v2a1 1 0 0 1-1 1H2a1 1 0 0 1-1-1V2zm5 0a1 1 0 0 1 1-1h2a1 1 0 0 1 1 1v2a1 1 0 0 1-1 1H7a1 1 0 0 1-1-1V2zm5 0a1 1 0 0 1 1-1h2a1 1 0 0 1 1 1v2a1 1 0 0 1-1 1h-2a1 1 0 0 1-1-1V2zM1 7a1 1 0 0 1 1-1h2a1 1 0 0 1 1 1v2a1 1 0 0 1-1 1H2a1 1 0 0 1-1-1V7zm5 0a1 1 0 0 1 1-1h2a1 1 0 0 1 1 1v2a1 1 0 0 1-1 1H7a1 1 0 0 1-1-1V7zm5 0a1 1 0 0 1 1-1h2a1 1 0 0 1 1 1v2a1 1 0 0 1-1 1h-2a1 1 0 0 1-1-1V7zM1 12a1 1 0 0 1 1-1h2a1 1 0 0 1 1 1v2a1 1 0 0 1-1 1H2a1 1 0 0 1-1-1v-2zm5 0a1 1 0 0 1 1-1h2a1 1 0 0 1 1 1v2a1 1 0 0 1-1 1H7a1 1 0 0 1-1-1v-2zm5 0a1 1 0 0 1 1-1h2a1 1 0 0 1 1 1v2a1 1 0 0 1-1 1h-2a1 1 0 0 1-1-1v-2z" /></symbol><symbol viewBox="0 0 20 18" id="icon-filter"><path d="M0 15a1.2 1.2 0 0 1 1.203-1.2h2.055A3 3 0 0 1 6.013 12a3 3 0 0 1 2.755 1.8h9.27a1.2 1.2 0 1 1 0 2.4h-9.27A3 3 0 0 1 6.013 18a3 3 0 0 1-2.755-1.8H1.203A1.2 1.2 0 0 1 0 15zm7.216 0a1.198 1.198 0 0 0-1.203-1.2A1.204 1.204 0 0 0 4.81 15a1.199 1.199 0 0 0 1.203 1.2A1.204 1.204 0 0 0 7.216 15zm7.215-6a1.199 1.199 0 0 0-1.203-1.2A1.204 1.204 0 0 0 12.026 9a1.199 1.199 0 0 0 1.202 1.2A1.204 1.204 0 0 0 14.431 9zm-1.203-3a3 3 0 0 1 2.755 1.8h2.056a1.2 1.2 0 1 1 0 2.4h-2.056a3 3 0 0 1-2.755 1.8 3 3 0 0 1-2.754-1.8H1.203a1.2 1.2 0 1 1 0-2.4h9.27A3 3 0 0 1 13.229 6zM7.216 1.8A1.204 1.204 0 0 0 6.013 3a1.199 1.199 0 0 0 1.203 1.2A1.204 1.204 0 0 0 8.418 3a1.199 1.199 0 0 0-1.202-1.2zm2.754 0h8.069a1.2 1.2 0 1 1 0 2.4H9.97A3 3 0 0 1 7.216 6 3 3 0 0 1 4.46 4.2H1.203a1.2 1.2 0 1 1 0-2.4H4.46A3 3 0 0 1 7.216 0 3 3 0 0 1 9.97 1.8z" /></symbol><symbol viewBox="0 0 12 10" id="keywords"><path d="M0.580645 0C0.258871 0 0 0.257212 0 0.576923V1.73077C0 2.05048 0.258871 2.30769 0.580645 2.30769H1.74194C2.06371 2.30769 2.32258 2.05048 2.32258 1.73077V0.576923C2.32258 0.257212 2.06371 0 1.74194 0H0.580645ZM4.25806 0.384615C3.82984 0.384615 3.48387 0.728365 3.48387 1.15385C3.48387 1.57933 3.82984 1.92308 4.25806 1.92308H11.2258C11.654 1.92308 12 1.57933 12 1.15385C12 0.728365 11.654 0.384615 11.2258 0.384615H4.25806ZM4.25806 4.23077C3.82984 4.23077 3.48387 4.57452 3.48387 5C3.48387 5.42548 3.82984 5.76923 4.25806 5.76923H11.2258C11.654 5.76923 12 5.42548 12 5C12 4.57452 11.654 4.23077 11.2258 4.23077H4.25806ZM4.25806 8.07692C3.82984 8.07692 3.48387 8.42067 3.48387 8.84615C3.48387 9.27163 3.82984 9.61539 4.25806 9.61539H11.2258C11.654 9.61539 12 9.27163 12 8.84615C12 8.42067 11.654 8.07692 11.2258 8.07692H4.25806ZM0 4.42308V5.57692C0 5.89663 0.258871 6.15385 0.580645 6.15385H1.74194C2.06371 6.15385 2.32258 5.89663 2.32258 5.57692V4.42308C2.32258 4.10337 2.06371 3.84615 1.74194 3.84615H0.580645C0.258871 3.84615 0 4.10337 0 4.42308ZM0.580645 7.69231C0.258871 7.69231 0 7.94952 0 8.26923V9.42308C0 9.74279 0.258871 10 0.580645 10H1.74194C2.06371 10 2.32258 9.74279 2.32258 9.42308V8.26923C2.32258 7.94952 2.06371 7.69231 1.74194 7.69231H0.580645Z" /></symbol><symbol viewBox="0 0 32 32" id="list"><title>list</title><path d="M0 0h8v8h-8zM12 2h20v4h-20zM0 12h8v8h-8zM12 14h20v4h-20zM0 24h8v8h-8zM12 26h20v4h-20z" /></symbol><symbol viewBox="0 0 12 16" id="location"><path d="M6.74062 15.6C8.34375 13.5938 12 8.73125 12 6C12 2.6875 9.3125 0 6 0C2.6875 0 0 2.6875 0 6C0 8.73125 3.65625 13.5938 5.25938 15.6C5.64375 16.0781 6.35625 16.0781 6.74062 15.6ZM6 4C6.53043 4 7.03914 4.21071 7.41421 4.58579C7.78929 4.96086 8 5.46957 8 6C8 6.53043 7.78929 7.03914 7.41421 7.41421C7.03914 7.78929 6.53043 8 6 8C5.46957 8 4.96086 7.78929 4.58579 7.41421C4.21071 7.03914 4 6.53043 4 6C4 5.46957 4.21071 4.96086 4.58579 4.58579C4.96086 4.21071 5.46957 4 6 4Z" /></symbol><symbol viewBox="0 0 12 14" id="number-of-students"><path d="M6 6.7742C5.09069 6.7742 4.21862 6.41734 3.57563 5.78214C2.93265 5.14693 2.57143 4.28541 2.57143 3.3871C2.57143 2.48878 2.93265 1.62726 3.57563 0.992058C4.21862 0.356854 5.09069 0 6 0C6.90931 0 7.78138 0.356854 8.42437 0.992058C9.06735 1.62726 9.42857 2.48878 9.42857 3.3871C9.42857 4.28541 9.06735 5.14693 8.42437 5.78214C7.78138 6.41734 6.90931 6.7742 6 6.7742ZM7.22411 8.04436C9.8625 8.04436 12 10.156 12 12.7625C12 13.1965 11.6437 13.5484 11.2045 13.5484H0.795536C0.35625 13.5484 0 13.1965 0 12.7625C0 10.156 2.1375 8.04436 4.77589 8.04436H7.22411Z" /></symbol><symbol viewBox="0 0 30 30" id="search"><path d="M 13 3 C 7.4889971 3 3 7.4889971 3 13 C 3 18.511003 7.4889971 23 13 23 C 15.396508 23 17.597385 22.148986 19.322266 20.736328 L 25.292969 26.707031 A 1.0001 1.0001 0 1 0 26.707031 25.292969 L 20.736328 19.322266 C 22.148986 17.597385 23 15.396508 23 13 C 23 7.4889971 18.511003 3 13 3 z M 13 5 C 17.430123 5 21 8.5698774 21 13 C 21 17.430123 17.430123 21 13 21 C 8.5698774 21 5 17.430123 5 13 C 5 8.5698774 8.5698774 5 13 5 z" /></symbol><symbol viewBox="0 0 20 18" id="settings"><path d="M0 15a1.2 1.2 0 0 1 1.203-1.2h2.055A3 3 0 0 1 6.013 12a3 3 0 0 1 2.755 1.8h9.27a1.2 1.2 0 1 1 0 2.4h-9.27A3 3 0 0 1 6.013 18a3 3 0 0 1-2.755-1.8H1.203A1.2 1.2 0 0 1 0 15zm7.216 0a1.198 1.198 0 0 0-1.203-1.2A1.204 1.204 0 0 0 4.81 15a1.199 1.199 0 0 0 1.203 1.2A1.204 1.204 0 0 0 7.216 15zm7.215-6a1.199 1.199 0 0 0-1.203-1.2A1.204 1.204 0 0 0 12.026 9a1.199 1.199 0 0 0 1.202 1.2A1.204 1.204 0 0 0 14.431 9zm-1.203-3a3 3 0 0 1 2.755 1.8h2.056a1.2 1.2 0 1 1 0 2.4h-2.056a3 3 0 0 1-2.755 1.8 3 3 0 0 1-2.754-1.8H1.203a1.2 1.2 0 1 1 0-2.4h9.27A3 3 0 0 1 13.229 6zM7.216 1.8A1.204 1.204 0 0 0 6.013 3a1.199 1.199 0 0 0 1.203 1.2A1.204 1.204 0 0 0 8.418 3a1.199 1.199 0 0 0-1.202-1.2zm2.754 0h8.069a1.2 1.2 0 1 1 0 2.4H9.97A3 3 0 0 1 7.216 6 3 3 0 0 1 4.46 4.2H1.203a1.2 1.2 0 1 1 0-2.4H4.46A3 3 0 0 1 7.216 0 3 3 0 0 1 9.97 1.8z" /></symbol><symbol viewBox="0 0 1792 1792" id="sort"><path d="M1408 1088q0 26-19 45l-448 448q-19 19-45 19t-45-19l-448-448q-19-19-19-45t19-45 45-19h896q26 0 45 19t19 45zm0-384q0 26-19 45t-45 19h-896q-26 0-45-19t-19-45 19-45l448-448q19-19 45-19t45 19l448 448q19 19 19 45z" /></symbol><symbol viewBox="0 0 12 12" id="standard-duration"><path d="M6 0C7.5913 0 9.11742 0.632141 10.2426 1.75736C11.3679 2.88258 12 4.4087 12 6C12 7.5913 11.3679 9.11742 10.2426 10.2426C9.11742 11.3679 7.5913 12 6 12C4.4087 12 2.88258 11.3679 1.75736 10.2426C0.632141 9.11742 0 7.5913 0 6C0 4.4087 0.632141 2.88258 1.75736 1.75736C2.88258 0.632141 4.4087 0 6 0ZM5.4375 2.8125V6C5.4375 6.1875 5.53125 6.36328 5.68828 6.46875L7.93828 7.96875C8.19609 8.14219 8.54531 8.07187 8.71875 7.81172C8.89219 7.55156 8.82187 7.20469 8.56172 7.03125L6.5625 5.7V2.8125C6.5625 2.50078 6.31172 2.25 6 2.25C5.68828 2.25 5.4375 2.50078 5.4375 2.8125Z" /></symbol><symbol viewBox="0 0 12 13" id="start"><path d="M3.42857 0C3.90268 0 4.28571 0.363086 4.28571 0.8125V1.625H7.71429V0.8125C7.71429 0.363086 8.09732 0 8.57143 0C9.04554 0 9.42857 0.363086 9.42857 0.8125V1.625H10.7143C11.4241 1.625 12 2.1709 12 2.84375V4.0625H0V2.84375C0 2.1709 0.575893 1.625 1.28571 1.625H2.57143V0.8125C2.57143 0.363086 2.95446 0 3.42857 0ZM0 4.875H12V11.7812C12 12.4541 11.4241 13 10.7143 13H1.28571C0.575893 13 0 12.4541 0 11.7812V4.875ZM1.71429 6.90625V7.71875C1.71429 7.94219 1.90714 8.125 2.14286 8.125H3C3.23571 8.125 3.42857 7.94219 3.42857 7.71875V6.90625C3.42857 6.68281 3.23571 6.5 3 6.5H2.14286C1.90714 6.5 1.71429 6.68281 1.71429 6.90625ZM5.14286 6.90625V7.71875C5.14286 7.94219 5.33571 8.125 5.57143 8.125H6.42857C6.66429 8.125 6.85714 7.94219 6.85714 7.71875V6.90625C6.85714 6.68281 6.66429 6.5 6.42857 6.5H5.57143C5.33571 6.5 5.14286 6.68281 5.14286 6.90625ZM9 6.5C8.76429 6.5 8.57143 6.68281 8.57143 6.90625V7.71875C8.57143 7.94219 8.76429 8.125 9 8.125H9.85714C10.0929 8.125 10.2857 7.94219 10.2857 7.71875V6.90625C10.2857 6.68281 10.0929 6.5 9.85714 6.5H9ZM1.71429 10.1562V10.9688C1.71429 11.1922 1.90714 11.375 2.14286 11.375H3C3.23571 11.375 3.42857 11.1922 3.42857 10.9688V10.1562C3.42857 9.93281 3.23571 9.75 3 9.75H2.14286C1.90714 9.75 1.71429 9.93281 1.71429 10.1562ZM5.57143 9.75C5.33571 9.75 5.14286 9.93281 5.14286 10.1562V10.9688C5.14286 11.1922 5.33571 11.375 5.57143 11.375H6.42857C6.66429 11.375 6.85714 11.1922 6.85714 10.9688V10.1562C6.85714 9.93281 6.66429 9.75 6.42857 9.75H5.57143ZM8.57143 10.1562V10.9688C8.57143 11.1922 8.76429 11.375 9 11.375H9.85714C10.0929 11.375 10.2857 11.1922 10.2857 10.9688V10.1562C10.2857 9.93281 10.0929 9.75 9.85714 9.75H9C8.76429 9.75 8.57143 9.93281 8.57143 10.1562Z" /></symbol><symbol viewBox="0 0 13 12" id="subject-groups"><path d="M5.96956 0.121869C6.30585 -0.0398499 6.69404 -0.0398499 7.03033 0.121869L11.964 2.48906C12.1558 2.58046 12.2777 2.77968 12.2777 2.99999C12.2777 3.22031 12.1558 3.41953 11.964 3.51093L7.03033 5.87812C6.69404 6.03984 6.30585 6.03984 5.96956 5.87812L1.03588 3.51093C0.844043 3.41718 0.722168 3.21796 0.722168 2.99999C0.722168 2.78203 0.844043 2.58046 1.03588 2.48906L5.96956 0.121869ZM10.7633 4.91249L11.964 5.48906C12.1558 5.58046 12.2777 5.77968 12.2777 5.99999C12.2777 6.22031 12.1558 6.41953 11.964 6.51093L7.03033 8.87812C6.69404 9.03984 6.30585 9.03984 5.96956 8.87812L1.03588 6.51093C0.844043 6.41718 0.722168 6.21796 0.722168 5.99999C0.722168 5.78203 0.844043 5.58046 1.03588 5.48906L2.23658 4.91249L5.66713 6.55781C6.19526 6.81093 6.80463 6.81093 7.33276 6.55781L10.7633 4.91249ZM7.33276 9.55781L10.7633 7.91249L11.964 8.48906C12.1558 8.58046 12.2777 8.77968 12.2777 8.99999C12.2777 9.22031 12.1558 9.41953 11.964 9.51093L7.03033 11.8781C6.69404 12.0398 6.30585 12.0398 5.96956 11.8781L1.03588 9.51093C0.844043 9.41718 0.722168 9.21796 0.722168 8.99999C0.722168 8.78203 0.844043 8.58046 1.03588 8.48906L2.23658 7.91249L5.66713 9.55781C6.19526 9.81093 6.80463 9.81093 7.33276 9.55781Z" /></symbol><symbol viewBox="0 0 12 12" id="teaching-language"><path d="M8.25 6C8.25 5.47969 8.22188 4.97813 8.17266 4.5H3.82734C3.77578 4.97813 3.75 5.47969 3.75 6C3.75 6.52031 3.77813 7.02187 3.82734 7.5H8.17266C8.22422 7.02187 8.25 6.52031 8.25 6ZM8.925 7.5H11.8102C11.9344 7.01953 12 6.51797 12 6C12 5.48203 11.9344 4.98047 11.8102 4.5H8.925C8.97422 4.98281 9 5.48438 9 6C9 6.51562 8.97422 7.01719 8.925 7.5ZM11.5641 8.25H8.82891C8.59453 9.74766 8.13047 11.0016 7.53281 11.8031C9.36797 11.318 10.8609 9.98672 11.5617 8.25H11.5641ZM8.06953 8.25H3.93047C4.07344 9.10313 4.29375 9.85781 4.56328 10.4695C4.80937 11.0227 5.08359 11.4234 5.34844 11.6766C5.61094 11.925 5.82891 12 6 12C6.17109 12 6.38906 11.925 6.65156 11.6766C6.91641 11.4234 7.19062 11.0227 7.43672 10.4695C7.70859 9.86016 7.92891 9.10547 8.06953 8.25ZM3.17109 8.25H0.435938C1.13906 9.98672 2.62969 11.318 4.46719 11.8031C3.86953 11.0016 3.40547 9.74766 3.17109 8.25ZM0.189844 7.5H3.075C3.02578 7.01719 3 6.51562 3 6C3 5.48438 3.02578 4.98281 3.075 4.5H0.189844C0.065625 4.98047 0 5.48203 0 6C0 6.51797 0.065625 7.01953 0.189844 7.5ZM4.56328 1.53281C4.29141 2.14219 4.07344 2.89688 3.93047 3.75H8.06953C7.92656 2.89688 7.70625 2.14219 7.43672 1.53281C7.19062 0.979688 6.91641 0.578906 6.65156 0.325781C6.38906 0.0749998 6.17109 0 6 0C5.82891 0 5.61094 0.0749998 5.34844 0.323437C5.08359 0.576562 4.80937 0.977344 4.56328 1.53047V1.53281ZM3.17109 3.75C3.40547 2.25234 3.86953 0.998437 4.46719 0.196875C2.62969 0.682031 1.13906 2.01328 0.435938 3.75H3.17109ZM11.5641 3.75C10.8609 2.01328 9.37031 0.682031 7.53516 0.196875C8.13281 0.998437 8.59453 2.25234 8.83125 3.75H11.5641Z" /></symbol></defs><use id="accordion-arrow-usage" xlink:href="#accordion-arrow" class="sprite-symbol-usage" /><use id="area-of-study-usage" xlink:href="#area-of-study" class="sprite-symbol-usage" /><use id="attributes-usage" xlink:href="#attributes" class="sprite-symbol-usage" /><use id="check-usage" xlink:href="#check" class="sprite-symbol-usage" /><use id="close-usage" xlink:href="#close" class="sprite-symbol-usage" /><use id="degree-usage" xlink:href="#degree" class="sprite-symbol-usage" /><use id="faculty-usage" xlink:href="#faculty" class="sprite-symbol-usage" /><use id="grid-usage" xlink:href="#grid" class="sprite-symbol-usage" /><use id="icon-filter-usage" xlink:href="#icon-filter" class="sprite-symbol-usage" /><use id="keywords-usage" xlink:href="#keywords" class="sprite-symbol-usage" /><use id="list-usage" xlink:href="#list" class="sprite-symbol-usage" /><use id="location-usage" xlink:href="#location" class="sprite-symbol-usage" /><use id="number-of-students-usage" xlink:href="#number-of-students" class="sprite-symbol-usage" /><use id="search-usage" xlink:href="#search" class="sprite-symbol-usage" /><use id="settings-usage" xlink:href="#settings" class="sprite-symbol-usage" /><use id="sort-usage" xlink:href="#sort" class="sprite-symbol-usage" /><use id="standard-duration-usage" xlink:href="#standard-duration" class="sprite-symbol-usage" /><use id="start-usage" xlink:href="#start" class="sprite-symbol-usage" /><use id="subject-groups-usage" xlink:href="#subject-groups" class="sprite-symbol-usage" /><use id="teaching-language-usage" xlink:href="#teaching-language" class="sprite-symbol-usage" /></svg>