<svg xmlns="http://www.w3.org/2000/svg" xmlns:xlink="http://www.w3.org/1999/xlink"><defs><symbol class="bi bi-grid-3x3-gap-fill" viewBox="0 0 16 16" id="grid"><path d="M1 2a1 1 0 0 1 1-1h2a1 1 0 0 1 1 1v2a1 1 0 0 1-1 1H2a1 1 0 0 1-1-1V2zm5 0a1 1 0 0 1 1-1h2a1 1 0 0 1 1 1v2a1 1 0 0 1-1 1H7a1 1 0 0 1-1-1V2zm5 0a1 1 0 0 1 1-1h2a1 1 0 0 1 1 1v2a1 1 0 0 1-1 1h-2a1 1 0 0 1-1-1V2zM1 7a1 1 0 0 1 1-1h2a1 1 0 0 1 1 1v2a1 1 0 0 1-1 1H2a1 1 0 0 1-1-1V7zm5 0a1 1 0 0 1 1-1h2a1 1 0 0 1 1 1v2a1 1 0 0 1-1 1H7a1 1 0 0 1-1-1V7zm5 0a1 1 0 0 1 1-1h2a1 1 0 0 1 1 1v2a1 1 0 0 1-1 1h-2a1 1 0 0 1-1-1V7zM1 12a1 1 0 0 1 1-1h2a1 1 0 0 1 1 1v2a1 1 0 0 1-1 1H2a1 1 0 0 1-1-1v-2zm5 0a1 1 0 0 1 1-1h2a1 1 0 0 1 1 1v2a1 1 0 0 1-1 1H7a1 1 0 0 1-1-1v-2zm5 0a1 1 0 0 1 1-1h2a1 1 0 0 1 1 1v2a1 1 0 0 1-1 1h-2a1 1 0 0 1-1-1v-2z" /></symbol><symbol fill="none" viewBox="0 0 20 18" id="icon-filter"><path fill="#004A9F" d="M0 15a1.2 1.2 0 0 1 1.203-1.2h2.055A3 3 0 0 1 6.013 12a3 3 0 0 1 2.755 1.8h9.27a1.2 1.2 0 1 1 0 2.4h-9.27A3 3 0 0 1 6.013 18a3 3 0 0 1-2.755-1.8H1.203A1.2 1.2 0 0 1 0 15zm7.216 0a1.198 1.198 0 0 0-1.203-1.2A1.204 1.204 0 0 0 4.81 15a1.199 1.199 0 0 0 1.203 1.2A1.204 1.204 0 0 0 7.216 15zm7.215-6a1.199 1.199 0 0 0-1.203-1.2A1.204 1.204 0 0 0 12.026 9a1.199 1.199 0 0 0 1.202 1.2A1.204 1.204 0 0 0 14.431 9zm-1.203-3a3 3 0 0 1 2.755 1.8h2.056a1.2 1.2 0 1 1 0 2.4h-2.056a3 3 0 0 1-2.755 1.8 3 3 0 0 1-2.754-1.8H1.203a1.2 1.2 0 1 1 0-2.4h9.27A3 3 0 0 1 13.229 6zM7.216 1.8A1.204 1.204 0 0 0 6.013 3a1.199 1.199 0 0 0 1.203 1.2A1.204 1.204 0 0 0 8.418 3a1.199 1.199 0 0 0-1.202-1.2zm2.754 0h8.069a1.2 1.2 0 1 1 0 2.4H9.97A3 3 0 0 1 7.216 6 3 3 0 0 1 4.46 4.2H1.203a1.2 1.2 0 1 1 0-2.4H4.46A3 3 0 0 1 7.216 0 3 3 0 0 1 9.97 1.8z" /></symbol><symbol viewBox="0 0 32 32" id="list"><path d="M0 0h8v8H0zm12 2h20v4H12zM0 12h8v8H0zm12 2h20v4H12zM0 24h8v8H0zm12 2h20v4H12z" /></symbol><symbol viewBox="0 0 30 30" id="search"><path d="M13 3C7.489 3 3 7.489 3 13s4.489 10 10 10a9.947 9.947 0 0 0 6.322-2.264l5.971 5.971a1 1 0 1 0 1.414-1.414l-5.97-5.97A9.947 9.947 0 0 0 23 13c0-5.511-4.489-10-10-10zm0 2c4.43 0 8 3.57 8 8s-3.57 8-8 8-8-3.57-8-8 3.57-8 8-8z" /></symbol><symbol viewBox="0 0 1792 1792" id="sort"><path d="M1408 1088q0 26-19 45l-448 448q-19 19-45 19t-45-19l-448-448q-19-19-19-45t19-45 45-19h896q26 0 45 19t19 45zm0-384q0 26-19 45t-45 19H448q-26 0-45-19t-19-45 19-45l448-448q19-19 45-19t45 19l448 448q19 19 19 45z" /></symbol></defs></svg>