<svg xmlns="http://www.w3.org/2000/svg" xmlns:xlink="http://www.w3.org/1999/xlink"><defs><symbol viewBox="0 0 24 14" id="accordion-arrow"><path d="M10.79 13.313c.67.674 1.756.674 2.426 0L23.498 2.95c.67-.675.67-1.77 0-2.445a1.707 1.707 0 0 0-2.426 0L12 9.648 2.928.512a1.707 1.707 0 0 0-2.426 0c-.67.674-.67 1.77 0 2.444l10.282 10.362.006-.005Z" /></symbol><symbol viewBox="0 0 12 14" id="area-of-study"><path d="M1.714.875A.865.865 0 0 0 .857 0 .865.865 0 0 0 0 .875v12.25c0 .484.383.875.857.875a.865.865 0 0 0 .857-.875v-3.5l1.723-.44a4.675 4.675 0 0 1 3.28.366 4.656 4.656 0 0 0 3.796.203l.93-.356a.875.875 0 0 0 .557-.82v-6.77c0-.63-.648-1.04-1.2-.758l-.257.131c-1.24.635-2.7.635-3.94 0A4.325 4.325 0 0 0 3.563.84l-1.849.474V.875Z" /></symbol><symbol viewBox="0 0 12 16" id="attributes"><path d="M6 0a2.997 2.997 0 0 0-2.828 2H2C.897 2 0 2.897 0 4v10c0 1.103.897 2 2 2h8c1.103 0 2-.897 2-2V4c0-1.103-.897-2-2-2H8.828A2.997 2.997 0 0 0 6 0Zm0 2a1 1 0 1 1 0 2 1 1 0 0 1 0-2ZM2.25 8.5a.75.75 0 1 1 1.5 0 .75.75 0 0 1-1.5 0ZM5.5 8h4c.275 0 .5.225.5.5s-.225.5-.5.5h-4a.501.501 0 0 1-.5-.5c0-.275.225-.5.5-.5Zm-3.25 3.5a.75.75 0 1 1 1.5 0 .75.75 0 0 1-1.5 0Zm2.75 0c0-.275.225-.5.5-.5h4c.275 0 .5.225.5.5s-.225.5-.5.5h-4a.501.501 0 0 1-.5-.5Z" /></symbol><symbol viewBox="0 0 14 12" id="degree"><path d="M7 .75c-.177 0-.352.033-.519.096L.345 3.22A.564.564 0 0 0 0 3.75c0 .237.138.448.345.53l1.267.49A4.062 4.062 0 0 0 1.05 6.84V7.5c0 .666-.236 1.352-.488 1.894a6.32 6.32 0 0 1-.492.881.4.4 0 0 0-.05.352c.039.12.13.208.245.239l1.4.375a.33.33 0 0 0 .27-.047.369.369 0 0 0 .156-.244 6.464 6.464 0 0 0-.046-2.548 5.451 5.451 0 0 0-.295-.984v-.577c0-.707.223-1.375.61-1.91a2.688 2.688 0 0 1 1.076-.836l3.435-1.447a.342.342 0 0 1 .453.211c.07.193-.018.41-.197.486L3.692 4.79c-.27.114-.51.29-.704.506l3.491 1.35a1.455 1.455 0 0 0 1.037 0l6.138-2.367A.562.562 0 0 0 14 3.75a.564.564 0 0 0-.346-.53L7.518.846A1.455 1.455 0 0 0 7 .75ZM2.8 9.563c0 .827 1.881 1.687 4.2 1.687s4.2-.86 4.2-1.688l-.335-3.407-3.11 1.204a2.095 2.095 0 0 1-1.51 0l-3.11-1.204L2.8 9.562Z" /></symbol><symbol viewBox="0 0 12 16" id="faculty"><path d="M1.5 0C.672 0 0 .659 0 1.471v12.75c0 .812.672 1.471 1.5 1.471h3V13.24c0-.812.672-1.47 1.5-1.47s1.5.658 1.5 1.47v2.452h3c.828 0 1.5-.659 1.5-1.47V1.471C12 .658 11.328 0 10.5 0h-9ZM2 7.356c0-.27.225-.49.5-.49h1c.275 0 .5.22.5.49v.98c0 .27-.225.49-.5.49h-1c-.275 0-.5-.22-.5-.49v-.98Zm3.5-.49h1c.275 0 .5.22.5.49v.98c0 .27-.225.49-.5.49h-1c-.275 0-.5-.22-.5-.49v-.98c0-.27.225-.49.5-.49Zm2.5.49c0-.27.225-.49.5-.49h1c.275 0 .5.22.5.49v.98c0 .27-.225.49-.5.49h-1c-.275 0-.5-.22-.5-.49v-.98ZM2.5 2.942h1c.275 0 .5.221.5.49v.981c0 .27-.225.49-.5.49h-1c-.275 0-.5-.22-.5-.49v-.98c0-.27.225-.49.5-.49Zm2.5.49c0-.269.225-.49.5-.49h1c.275 0 .5.221.5.49v.981c0 .27-.225.49-.5.49h-1c-.275 0-.5-.22-.5-.49v-.98Zm3.5-.49h1c.275 0 .5.221.5.49v.981c0 .27-.225.49-.5.49h-1c-.275 0-.5-.22-.5-.49v-.98c0-.27.225-.49.5-.49Z" /></symbol><symbol class="bi bi-grid-3x3-gap-fill" viewBox="0 0 16 16" id="grid"><path d="M1 2a1 1 0 0 1 1-1h2a1 1 0 0 1 1 1v2a1 1 0 0 1-1 1H2a1 1 0 0 1-1-1V2zm5 0a1 1 0 0 1 1-1h2a1 1 0 0 1 1 1v2a1 1 0 0 1-1 1H7a1 1 0 0 1-1-1V2zm5 0a1 1 0 0 1 1-1h2a1 1 0 0 1 1 1v2a1 1 0 0 1-1 1h-2a1 1 0 0 1-1-1V2zM1 7a1 1 0 0 1 1-1h2a1 1 0 0 1 1 1v2a1 1 0 0 1-1 1H2a1 1 0 0 1-1-1V7zm5 0a1 1 0 0 1 1-1h2a1 1 0 0 1 1 1v2a1 1 0 0 1-1 1H7a1 1 0 0 1-1-1V7zm5 0a1 1 0 0 1 1-1h2a1 1 0 0 1 1 1v2a1 1 0 0 1-1 1h-2a1 1 0 0 1-1-1V7zM1 12a1 1 0 0 1 1-1h2a1 1 0 0 1 1 1v2a1 1 0 0 1-1 1H2a1 1 0 0 1-1-1v-2zm5 0a1 1 0 0 1 1-1h2a1 1 0 0 1 1 1v2a1 1 0 0 1-1 1H7a1 1 0 0 1-1-1v-2zm5 0a1 1 0 0 1 1-1h2a1 1 0 0 1 1 1v2a1 1 0 0 1-1 1h-2a1 1 0 0 1-1-1v-2z" /></symbol><symbol fill="none" viewBox="0 0 20 18" id="icon-filter"><path fill="#004A9F" d="M0 15a1.2 1.2 0 0 1 1.203-1.2h2.055A3 3 0 0 1 6.013 12a3 3 0 0 1 2.755 1.8h9.27a1.2 1.2 0 1 1 0 2.4h-9.27A3 3 0 0 1 6.013 18a3 3 0 0 1-2.755-1.8H1.203A1.2 1.2 0 0 1 0 15zm7.216 0a1.198 1.198 0 0 0-1.203-1.2A1.204 1.204 0 0 0 4.81 15a1.199 1.199 0 0 0 1.203 1.2A1.204 1.204 0 0 0 7.216 15zm7.215-6a1.199 1.199 0 0 0-1.203-1.2A1.204 1.204 0 0 0 12.026 9a1.199 1.199 0 0 0 1.202 1.2A1.204 1.204 0 0 0 14.431 9zm-1.203-3a3 3 0 0 1 2.755 1.8h2.056a1.2 1.2 0 1 1 0 2.4h-2.056a3 3 0 0 1-2.755 1.8 3 3 0 0 1-2.754-1.8H1.203a1.2 1.2 0 1 1 0-2.4h9.27A3 3 0 0 1 13.229 6zM7.216 1.8A1.204 1.204 0 0 0 6.013 3a1.199 1.199 0 0 0 1.203 1.2A1.204 1.204 0 0 0 8.418 3a1.199 1.199 0 0 0-1.202-1.2zm2.754 0h8.069a1.2 1.2 0 1 1 0 2.4H9.97A3 3 0 0 1 7.216 6 3 3 0 0 1 4.46 4.2H1.203a1.2 1.2 0 1 1 0-2.4H4.46A3 3 0 0 1 7.216 0 3 3 0 0 1 9.97 1.8z" /></symbol><symbol viewBox="0 0 12 10" id="keywords"><path d="M.58 0A.577.577 0 0 0 0 .577V1.73c0 .32.259.577.58.577h1.162c.322 0 .58-.258.58-.577V.577A.577.577 0 0 0 1.743 0H.58Zm3.678.385a.77.77 0 0 0-.774.769c0 .425.346.77.774.77h6.968a.77.77 0 0 0 .774-.77.77.77 0 0 0-.774-.77H4.258Zm0 3.846A.77.77 0 0 0 3.484 5c0 .425.346.77.774.77h6.968A.77.77 0 0 0 12 5a.77.77 0 0 0-.774-.77H4.258Zm0 3.846a.77.77 0 0 0-.774.77c0 .425.346.768.774.768h6.968A.77.77 0 0 0 12 8.846a.77.77 0 0 0-.774-.77H4.258ZM0 4.423v1.154c0 .32.259.577.58.577h1.162c.322 0 .58-.257.58-.577V4.423a.577.577 0 0 0-.58-.577H.58A.577.577 0 0 0 0 4.423Zm.58 3.27a.577.577 0 0 0-.58.576v1.154c0 .32.259.577.58.577h1.162c.322 0 .58-.257.58-.577V8.27a.577.577 0 0 0-.58-.577H.58Z" /></symbol><symbol viewBox="0 0 32 32" id="list"><path d="M0 0h8v8H0zm12 2h20v4H12zM0 12h8v8H0zm12 2h20v4H12zM0 24h8v8H0zm12 2h20v4H12z" /></symbol><symbol viewBox="0 0 12 16" id="location"><path d="M6.74 15.6C8.345 13.594 12 8.731 12 6c0-3.313-2.688-6-6-6-3.313 0-6 2.688-6 6 0 2.731 3.656 7.594 5.26 9.6a.944.944 0 0 0 1.48 0ZM6 4a2 2 0 1 1 0 4 2 2 0 0 1 0-4Z" /></symbol><symbol viewBox="0 0 12 14" id="number-of-students"><path d="M6 6.774a3.45 3.45 0 0 1-2.424-.992A3.366 3.366 0 0 1 2.57 3.387c0-.898.362-1.76 1.005-2.395A3.45 3.45 0 0 1 6 0c.91 0 1.781.357 2.424.992A3.366 3.366 0 0 1 9.43 3.387c0 .898-.362 1.76-1.005 2.395A3.45 3.45 0 0 1 6 6.774Zm1.224 1.27c2.639 0 4.776 2.112 4.776 4.718a.79.79 0 0 1-.796.786H.796A.79.79 0 0 1 0 12.762c0-2.606 2.138-4.718 4.776-4.718h2.448Z" /></symbol><symbol viewBox="0 0 30 30" id="search"><path d="M13 3C7.489 3 3 7.489 3 13s4.489 10 10 10a9.947 9.947 0 0 0 6.322-2.264l5.971 5.971a1 1 0 1 0 1.414-1.414l-5.97-5.97A9.947 9.947 0 0 0 23 13c0-5.511-4.489-10-10-10zm0 2c4.43 0 8 3.57 8 8s-3.57 8-8 8-8-3.57-8-8 3.57-8 8-8z" /></symbol><symbol viewBox="0 0 1792 1792" id="sort"><path d="M1408 1088q0 26-19 45l-448 448q-19 19-45 19t-45-19l-448-448q-19-19-19-45t19-45 45-19h896q26 0 45 19t19 45zm0-384q0 26-19 45t-45 19H448q-26 0-45-19t-19-45 19-45l448-448q19-19 45-19t45 19l448 448q19 19 19 45z" /></symbol><symbol viewBox="0 0 12 12" id="standard-duration"><path d="M6 0a6 6 0 1 1 0 12A6 6 0 0 1 6 0Zm-.563 2.813V6c0 .188.094.363.251.469l2.25 1.5a.561.561 0 0 0 .78-.157.56.56 0 0 0-.156-.78l-2-1.332V2.812A.561.561 0 0 0 6 2.25a.561.561 0 0 0-.563.563Z" /></symbol><symbol viewBox="0 0 12 13" id="start"><path d="M3.429 0c.474 0 .857.363.857.813v.812h3.428V.812c0-.449.383-.812.857-.812.475 0 .858.363.858.813v.812h1.285c.71 0 1.286.546 1.286 1.219v1.219H0v-1.22c0-.672.576-1.218 1.286-1.218H2.57V.812c0-.449.383-.812.858-.812ZM0 4.875h12v6.906c0 .673-.576 1.219-1.286 1.219H1.286C.576 13 0 12.454 0 11.781V4.875Zm1.714 2.031v.813a.42.42 0 0 0 .429.406H3a.42.42 0 0 0 .429-.406v-.813A.42.42 0 0 0 3 6.5h-.857a.42.42 0 0 0-.429.406Zm3.429 0v.813a.42.42 0 0 0 .428.406h.858a.42.42 0 0 0 .428-.406v-.813A.42.42 0 0 0 6.43 6.5H5.57a.42.42 0 0 0-.428.406ZM9 6.5a.42.42 0 0 0-.429.406v.813A.42.42 0 0 0 9 8.125h.857a.419.419 0 0 0 .429-.406v-.813a.419.419 0 0 0-.429-.406H9Zm-7.286 3.656v.813a.42.42 0 0 0 .429.406H3a.42.42 0 0 0 .429-.406v-.813A.42.42 0 0 0 3 9.75h-.857a.42.42 0 0 0-.429.406Zm3.857-.406a.42.42 0 0 0-.428.406v.813a.42.42 0 0 0 .428.406h.858a.42.42 0 0 0 .428-.406v-.813a.42.42 0 0 0-.428-.406H5.57Zm3 .406v.813a.42.42 0 0 0 .429.406h.857a.419.419 0 0 0 .429-.406v-.813a.419.419 0 0 0-.429-.406H9a.42.42 0 0 0-.429.406Z" /></symbol><symbol viewBox="0 0 13 12" id="subject-groups"><path d="M5.97.122a1.22 1.22 0 0 1 1.06 0l4.934 2.367c.192.091.314.29.314.511 0 .22-.122.42-.314.51L7.03 5.879a1.22 1.22 0 0 1-1.06 0L1.036 3.511A.567.567 0 0 1 .722 3c0-.218.122-.42.314-.51L5.97.121Zm4.793 4.79 1.201.577c.192.091.314.29.314.511 0 .22-.122.42-.314.51L7.03 8.879a1.22 1.22 0 0 1-1.06 0L1.036 6.511A.567.567 0 0 1 .722 6c0-.218.122-.42.314-.51l1.2-.578 3.431 1.646a1.922 1.922 0 0 0 1.666 0l3.43-1.646Zm-3.43 4.646 3.43-1.646 1.201.577c.192.091.314.29.314.511 0 .22-.122.42-.314.51L7.03 11.879a1.22 1.22 0 0 1-1.06 0L1.036 9.511A.567.567 0 0 1 .722 9c0-.218.122-.42.314-.51l1.2-.578 3.431 1.646a1.922 1.922 0 0 0 1.666 0Z" /></symbol><symbol viewBox="0 0 12 12" id="teaching-language"><path d="M8.25 6c0-.52-.028-1.022-.077-1.5H3.827a14.658 14.658 0 0 0 0 3h4.346c.051-.478.077-.98.077-1.5Zm.675 1.5h2.885a5.98 5.98 0 0 0 0-3H8.925a14.808 14.808 0 0 1 0 3Zm2.64.75H8.828c-.234 1.498-.699 2.752-1.296 3.553a6.012 6.012 0 0 0 4.029-3.553h.002Zm-3.495 0H3.93c.143.853.364 1.608.633 2.22.246.553.52.953.785 1.207.263.248.48.323.652.323.171 0 .39-.075.652-.323.264-.254.539-.654.785-1.207.272-.61.492-1.365.633-2.22Zm-4.899 0H.436a6.015 6.015 0 0 0 4.031 3.553c-.597-.801-1.062-2.055-1.296-3.553ZM.19 7.5h2.885a14.808 14.808 0 0 1 0-3H.19A5.98 5.98 0 0 0 0 6c0 .518.066 1.02.19 1.5Zm4.373-5.967c-.272.61-.49 1.364-.633 2.217h4.14c-.143-.853-.364-1.608-.633-2.217C7.19.98 6.917.579 6.652.326 6.389.075 6.172 0 6 0c-.171 0-.39.075-.652.323-.264.254-.539.654-.785 1.207v.003ZM3.171 3.75C3.405 2.252 3.87.998 4.467.197A6.015 6.015 0 0 0 .436 3.75H3.17Zm8.393 0A6.017 6.017 0 0 0 7.535.197c.598.801 1.06 2.055 1.296 3.553h2.733Z" /></symbol></defs></svg>